<mxfile host="app.diagrams.net" agent="Mozilla/5.0 (Macintosh; Intel Mac OS X 10_15_7) AppleWebKit/605.1.15 (KHTML, like Gecko) Version/18.4 Safari/605.1.15" version="27.0.1">
  <diagram name="Page-1" id="YE3y-7QlR1XL3fS6bmWs">
    <mxGraphModel dx="1395" dy="944" grid="1" gridSize="10" guides="1" tooltips="1" connect="1" arrows="1" fold="1" page="1" pageScale="1" pageWidth="413" pageHeight="291" math="0" shadow="0">
      <root>
        <mxCell id="0" />
        <mxCell id="1" parent="0" />
        <mxCell id="vF9UbIoTn64OwEZbg43e-4" value="User" style="shape=umlActor;verticalLabelPosition=bottom;verticalAlign=top;html=1;outlineConnect=0;" vertex="1" parent="1">
          <mxGeometry x="60" y="255" width="30" height="60" as="geometry" />
        </mxCell>
        <mxCell id="vF9UbIoTn64OwEZbg43e-6" value="&lt;div&gt;Task Manager&lt;/div&gt;" style="ellipse;whiteSpace=wrap;html=1;" vertex="1" parent="1">
          <mxGeometry x="200" y="250" width="105" height="70" as="geometry" />
        </mxCell>
        <mxCell id="vF9UbIoTn64OwEZbg43e-9" value="" style="endArrow=classic;html=1;rounded=0;entryX=0;entryY=0.5;entryDx=0;entryDy=0;exitX=0.5;exitY=0.5;exitDx=0;exitDy=0;exitPerimeter=0;" edge="1" parent="1" source="vF9UbIoTn64OwEZbg43e-4" target="vF9UbIoTn64OwEZbg43e-6">
          <mxGeometry width="50" height="50" relative="1" as="geometry">
            <mxPoint x="100" y="190" as="sourcePoint" />
            <mxPoint x="130" y="140" as="targetPoint" />
          </mxGeometry>
        </mxCell>
        <mxCell id="vF9UbIoTn64OwEZbg43e-11" value="&lt;div&gt;Save Task&lt;/div&gt;" style="ellipse;whiteSpace=wrap;html=1;" vertex="1" parent="1">
          <mxGeometry x="45" y="70" width="105" height="70" as="geometry" />
        </mxCell>
        <mxCell id="vF9UbIoTn64OwEZbg43e-12" value="Edit Task" style="ellipse;whiteSpace=wrap;html=1;" vertex="1" parent="1">
          <mxGeometry x="150" y="70" width="105" height="70" as="geometry" />
        </mxCell>
        <mxCell id="vF9UbIoTn64OwEZbg43e-13" value="&lt;div&gt;Load Task&lt;/div&gt;" style="ellipse;whiteSpace=wrap;html=1;" vertex="1" parent="1">
          <mxGeometry x="255" y="70" width="105" height="70" as="geometry" />
        </mxCell>
        <mxCell id="vF9UbIoTn64OwEZbg43e-14" value="" style="endArrow=none;dashed=1;html=1;dashPattern=1 3;strokeWidth=2;rounded=0;entryX=0.5;entryY=1;entryDx=0;entryDy=0;exitX=0.5;exitY=0;exitDx=0;exitDy=0;" edge="1" parent="1" source="vF9UbIoTn64OwEZbg43e-6" target="vF9UbIoTn64OwEZbg43e-13">
          <mxGeometry width="50" height="50" relative="1" as="geometry">
            <mxPoint x="340" y="260" as="sourcePoint" />
            <mxPoint x="440" y="390" as="targetPoint" />
            <Array as="points" />
          </mxGeometry>
        </mxCell>
        <mxCell id="vF9UbIoTn64OwEZbg43e-17" value="" style="endArrow=none;dashed=1;html=1;dashPattern=1 3;strokeWidth=2;rounded=0;exitX=0.5;exitY=0;exitDx=0;exitDy=0;entryX=0.5;entryY=1;entryDx=0;entryDy=0;" edge="1" parent="1" source="vF9UbIoTn64OwEZbg43e-6" target="vF9UbIoTn64OwEZbg43e-12">
          <mxGeometry width="50" height="50" relative="1" as="geometry">
            <mxPoint x="390" y="440" as="sourcePoint" />
            <mxPoint x="440" y="390" as="targetPoint" />
          </mxGeometry>
        </mxCell>
        <mxCell id="vF9UbIoTn64OwEZbg43e-18" value="" style="endArrow=none;dashed=1;html=1;dashPattern=1 3;strokeWidth=2;rounded=0;exitX=0.5;exitY=0;exitDx=0;exitDy=0;entryX=0.5;entryY=1;entryDx=0;entryDy=0;" edge="1" parent="1" source="vF9UbIoTn64OwEZbg43e-6" target="vF9UbIoTn64OwEZbg43e-11">
          <mxGeometry width="50" height="50" relative="1" as="geometry">
            <mxPoint x="390" y="440" as="sourcePoint" />
            <mxPoint x="440" y="390" as="targetPoint" />
            <Array as="points" />
          </mxGeometry>
        </mxCell>
        <mxCell id="vF9UbIoTn64OwEZbg43e-19" value="" style="endArrow=classic;html=1;rounded=0;entryX=0.5;entryY=1;entryDx=0;entryDy=0;exitX=0.5;exitY=0;exitDx=0;exitDy=0;" edge="1" parent="1" source="vF9UbIoTn64OwEZbg43e-6" target="vF9UbIoTn64OwEZbg43e-13">
          <mxGeometry relative="1" as="geometry">
            <mxPoint x="310" y="285" as="sourcePoint" />
            <mxPoint x="460" y="410" as="targetPoint" />
          </mxGeometry>
        </mxCell>
        <mxCell id="vF9UbIoTn64OwEZbg43e-20" value="Include" style="edgeLabel;resizable=0;html=1;;align=center;verticalAlign=middle;" connectable="0" vertex="1" parent="vF9UbIoTn64OwEZbg43e-19">
          <mxGeometry relative="1" as="geometry" />
        </mxCell>
        <mxCell id="vF9UbIoTn64OwEZbg43e-21" value="" style="endArrow=classic;html=1;rounded=0;exitX=0.5;exitY=0;exitDx=0;exitDy=0;entryX=0.5;entryY=1;entryDx=0;entryDy=0;" edge="1" parent="1" source="vF9UbIoTn64OwEZbg43e-6" target="vF9UbIoTn64OwEZbg43e-12">
          <mxGeometry relative="1" as="geometry">
            <mxPoint x="330" y="320" as="sourcePoint" />
            <mxPoint x="430" y="320" as="targetPoint" />
          </mxGeometry>
        </mxCell>
        <mxCell id="vF9UbIoTn64OwEZbg43e-22" value="Include" style="edgeLabel;resizable=0;html=1;;align=center;verticalAlign=middle;" connectable="0" vertex="1" parent="vF9UbIoTn64OwEZbg43e-21">
          <mxGeometry relative="1" as="geometry" />
        </mxCell>
        <mxCell id="vF9UbIoTn64OwEZbg43e-23" value="" style="endArrow=classic;html=1;rounded=0;entryX=0.5;entryY=1;entryDx=0;entryDy=0;exitX=0.5;exitY=0;exitDx=0;exitDy=0;" edge="1" parent="1" source="vF9UbIoTn64OwEZbg43e-6" target="vF9UbIoTn64OwEZbg43e-11">
          <mxGeometry relative="1" as="geometry">
            <mxPoint x="305" y="285" as="sourcePoint" />
            <mxPoint x="420" y="160" as="targetPoint" />
          </mxGeometry>
        </mxCell>
        <mxCell id="vF9UbIoTn64OwEZbg43e-24" value="Include" style="edgeLabel;resizable=0;html=1;;align=center;verticalAlign=middle;" connectable="0" vertex="1" parent="vF9UbIoTn64OwEZbg43e-23">
          <mxGeometry relative="1" as="geometry" />
        </mxCell>
        <mxCell id="vF9UbIoTn64OwEZbg43e-27" value="&lt;div&gt;Delete Task&lt;/div&gt;" style="ellipse;whiteSpace=wrap;html=1;" vertex="1" parent="1">
          <mxGeometry x="361" y="70" width="105" height="70" as="geometry" />
        </mxCell>
        <mxCell id="vF9UbIoTn64OwEZbg43e-28" value="" style="endArrow=classic;html=1;rounded=0;exitX=0.5;exitY=0;exitDx=0;exitDy=0;entryX=0.5;entryY=1;entryDx=0;entryDy=0;" edge="1" parent="1" source="vF9UbIoTn64OwEZbg43e-6" target="vF9UbIoTn64OwEZbg43e-27">
          <mxGeometry relative="1" as="geometry">
            <mxPoint x="250" y="370" as="sourcePoint" />
            <mxPoint x="350" y="370" as="targetPoint" />
          </mxGeometry>
        </mxCell>
        <mxCell id="vF9UbIoTn64OwEZbg43e-29" value="Include" style="edgeLabel;resizable=0;html=1;;align=center;verticalAlign=middle;" connectable="0" vertex="1" parent="vF9UbIoTn64OwEZbg43e-28">
          <mxGeometry relative="1" as="geometry" />
        </mxCell>
        <mxCell id="vF9UbIoTn64OwEZbg43e-30" value="" style="endArrow=none;dashed=1;html=1;dashPattern=1 3;strokeWidth=2;rounded=0;exitX=0.5;exitY=0;exitDx=0;exitDy=0;entryX=0.5;entryY=1;entryDx=0;entryDy=0;" edge="1" parent="1" source="vF9UbIoTn64OwEZbg43e-6" target="vF9UbIoTn64OwEZbg43e-27">
          <mxGeometry width="50" height="50" relative="1" as="geometry">
            <mxPoint x="280" y="390" as="sourcePoint" />
            <mxPoint x="330" y="340" as="targetPoint" />
          </mxGeometry>
        </mxCell>
        <mxCell id="vF9UbIoTn64OwEZbg43e-32" value="&lt;div&gt;ID&lt;/div&gt;" style="ellipse;whiteSpace=wrap;html=1;" vertex="1" parent="1">
          <mxGeometry x="60" y="450" width="75" height="50" as="geometry" />
        </mxCell>
        <mxCell id="vF9UbIoTn64OwEZbg43e-33" value="&lt;div&gt;Description&lt;/div&gt;" style="ellipse;whiteSpace=wrap;html=1;fontSize=10;" vertex="1" parent="1">
          <mxGeometry x="135" y="450" width="75" height="50" as="geometry" />
        </mxCell>
        <mxCell id="vF9UbIoTn64OwEZbg43e-34" value="&lt;div&gt;Start&lt;/div&gt;" style="ellipse;whiteSpace=wrap;html=1;" vertex="1" parent="1">
          <mxGeometry x="210" y="450" width="75" height="50" as="geometry" />
        </mxCell>
        <mxCell id="vF9UbIoTn64OwEZbg43e-35" value="&lt;div&gt;Due&lt;/div&gt;" style="ellipse;whiteSpace=wrap;html=1;" vertex="1" parent="1">
          <mxGeometry x="285" y="450" width="75" height="50" as="geometry" />
        </mxCell>
        <mxCell id="vF9UbIoTn64OwEZbg43e-36" value="&lt;div&gt;Status&lt;/div&gt;" style="ellipse;whiteSpace=wrap;html=1;" vertex="1" parent="1">
          <mxGeometry x="360" y="450" width="75" height="50" as="geometry" />
        </mxCell>
        <mxCell id="vF9UbIoTn64OwEZbg43e-37" value="" style="endArrow=classic;html=1;rounded=0;exitX=0.5;exitY=1;exitDx=0;exitDy=0;entryX=0.5;entryY=0;entryDx=0;entryDy=0;" edge="1" parent="1" source="vF9UbIoTn64OwEZbg43e-6" target="vF9UbIoTn64OwEZbg43e-32">
          <mxGeometry width="50" height="50" relative="1" as="geometry">
            <mxPoint x="280" y="370" as="sourcePoint" />
            <mxPoint x="330" y="320" as="targetPoint" />
          </mxGeometry>
        </mxCell>
        <mxCell id="vF9UbIoTn64OwEZbg43e-38" value="" style="endArrow=classic;html=1;rounded=0;exitX=0.5;exitY=1;exitDx=0;exitDy=0;entryX=0.5;entryY=0;entryDx=0;entryDy=0;" edge="1" parent="1" source="vF9UbIoTn64OwEZbg43e-6" target="vF9UbIoTn64OwEZbg43e-33">
          <mxGeometry width="50" height="50" relative="1" as="geometry">
            <mxPoint x="263" y="330" as="sourcePoint" />
            <mxPoint x="108" y="460" as="targetPoint" />
          </mxGeometry>
        </mxCell>
        <mxCell id="vF9UbIoTn64OwEZbg43e-39" value="" style="endArrow=classic;html=1;rounded=0;exitX=0.5;exitY=1;exitDx=0;exitDy=0;entryX=0.5;entryY=0;entryDx=0;entryDy=0;" edge="1" parent="1" source="vF9UbIoTn64OwEZbg43e-6" target="vF9UbIoTn64OwEZbg43e-34">
          <mxGeometry width="50" height="50" relative="1" as="geometry">
            <mxPoint x="263" y="330" as="sourcePoint" />
            <mxPoint x="183" y="460" as="targetPoint" />
          </mxGeometry>
        </mxCell>
        <mxCell id="vF9UbIoTn64OwEZbg43e-40" value="" style="endArrow=classic;html=1;rounded=0;exitX=0.5;exitY=1;exitDx=0;exitDy=0;entryX=0.5;entryY=0;entryDx=0;entryDy=0;" edge="1" parent="1" source="vF9UbIoTn64OwEZbg43e-6" target="vF9UbIoTn64OwEZbg43e-35">
          <mxGeometry width="50" height="50" relative="1" as="geometry">
            <mxPoint x="263" y="330" as="sourcePoint" />
            <mxPoint x="258" y="460" as="targetPoint" />
          </mxGeometry>
        </mxCell>
        <mxCell id="vF9UbIoTn64OwEZbg43e-41" value="" style="endArrow=classic;html=1;rounded=0;exitX=0.5;exitY=1;exitDx=0;exitDy=0;entryX=0.5;entryY=0;entryDx=0;entryDy=0;" edge="1" parent="1" source="vF9UbIoTn64OwEZbg43e-6" target="vF9UbIoTn64OwEZbg43e-36">
          <mxGeometry width="50" height="50" relative="1" as="geometry">
            <mxPoint x="263" y="330" as="sourcePoint" />
            <mxPoint x="333" y="460" as="targetPoint" />
          </mxGeometry>
        </mxCell>
        <mxCell id="vF9UbIoTn64OwEZbg43e-43" value="&lt;div&gt;Filter by Status&lt;/div&gt;" style="ellipse;whiteSpace=wrap;html=1;" vertex="1" parent="1">
          <mxGeometry x="570" y="645" width="105" height="70" as="geometry" />
        </mxCell>
        <mxCell id="vF9UbIoTn64OwEZbg43e-48" value="" style="edgeStyle=orthogonalEdgeStyle;rounded=0;orthogonalLoop=1;jettySize=auto;html=1;" edge="1" parent="1" source="vF9UbIoTn64OwEZbg43e-44" target="vF9UbIoTn64OwEZbg43e-43">
          <mxGeometry relative="1" as="geometry" />
        </mxCell>
        <mxCell id="vF9UbIoTn64OwEZbg43e-44" value="CopyUser" style="shape=umlActor;verticalLabelPosition=bottom;verticalAlign=top;html=1;outlineConnect=0;" vertex="1" parent="1">
          <mxGeometry x="740" y="650" width="30" height="60" as="geometry" />
        </mxCell>
        <mxCell id="vF9UbIoTn64OwEZbg43e-49" value="&lt;div&gt;ALL&lt;/div&gt;" style="ellipse;whiteSpace=wrap;html=1;" vertex="1" parent="1">
          <mxGeometry x="450" y="555" width="75" height="50" as="geometry" />
        </mxCell>
        <mxCell id="vF9UbIoTn64OwEZbg43e-50" value="Pending" style="ellipse;whiteSpace=wrap;html=1;" vertex="1" parent="1">
          <mxGeometry x="450" y="605" width="75" height="50" as="geometry" />
        </mxCell>
        <mxCell id="vF9UbIoTn64OwEZbg43e-51" value="&lt;font style=&quot;font-size: 10px;&quot;&gt;In progress&lt;/font&gt;" style="ellipse;whiteSpace=wrap;html=1;" vertex="1" parent="1">
          <mxGeometry x="450" y="655" width="75" height="50" as="geometry" />
        </mxCell>
        <mxCell id="vF9UbIoTn64OwEZbg43e-53" value="&lt;font style=&quot;font-size: 10px;&quot;&gt;Completed&lt;/font&gt;" style="ellipse;whiteSpace=wrap;html=1;" vertex="1" parent="1">
          <mxGeometry x="450" y="705" width="75" height="50" as="geometry" />
        </mxCell>
        <mxCell id="vF9UbIoTn64OwEZbg43e-54" value="&lt;font style=&quot;font-size: 10px;&quot;&gt;Canceled&lt;/font&gt;" style="ellipse;whiteSpace=wrap;html=1;" vertex="1" parent="1">
          <mxGeometry x="450" y="755" width="75" height="50" as="geometry" />
        </mxCell>
        <mxCell id="vF9UbIoTn64OwEZbg43e-61" value="" style="endArrow=classic;html=1;rounded=0;exitX=0;exitY=0.5;exitDx=0;exitDy=0;entryX=1;entryY=0.5;entryDx=0;entryDy=0;" edge="1" parent="1" source="vF9UbIoTn64OwEZbg43e-43" target="vF9UbIoTn64OwEZbg43e-49">
          <mxGeometry width="50" height="50" relative="1" as="geometry">
            <mxPoint x="570" y="730" as="sourcePoint" />
            <mxPoint x="620" y="680" as="targetPoint" />
          </mxGeometry>
        </mxCell>
        <mxCell id="vF9UbIoTn64OwEZbg43e-62" value="" style="endArrow=classic;html=1;rounded=0;exitX=0;exitY=0.5;exitDx=0;exitDy=0;entryX=1;entryY=0.5;entryDx=0;entryDy=0;" edge="1" parent="1" source="vF9UbIoTn64OwEZbg43e-43" target="vF9UbIoTn64OwEZbg43e-50">
          <mxGeometry width="50" height="50" relative="1" as="geometry">
            <mxPoint x="160" y="530" as="sourcePoint" />
            <mxPoint x="210" y="480" as="targetPoint" />
          </mxGeometry>
        </mxCell>
        <mxCell id="vF9UbIoTn64OwEZbg43e-63" value="" style="endArrow=classic;html=1;rounded=0;exitX=0;exitY=0.5;exitDx=0;exitDy=0;entryX=1;entryY=0.5;entryDx=0;entryDy=0;" edge="1" parent="1" source="vF9UbIoTn64OwEZbg43e-43" target="vF9UbIoTn64OwEZbg43e-51">
          <mxGeometry width="50" height="50" relative="1" as="geometry">
            <mxPoint x="560" y="720" as="sourcePoint" />
            <mxPoint x="610" y="670" as="targetPoint" />
          </mxGeometry>
        </mxCell>
        <mxCell id="vF9UbIoTn64OwEZbg43e-64" value="" style="endArrow=classic;html=1;rounded=0;exitX=0;exitY=0.5;exitDx=0;exitDy=0;entryX=1;entryY=0.5;entryDx=0;entryDy=0;" edge="1" parent="1" source="vF9UbIoTn64OwEZbg43e-43" target="vF9UbIoTn64OwEZbg43e-53">
          <mxGeometry width="50" height="50" relative="1" as="geometry">
            <mxPoint x="160" y="530" as="sourcePoint" />
            <mxPoint x="210" y="480" as="targetPoint" />
          </mxGeometry>
        </mxCell>
        <mxCell id="vF9UbIoTn64OwEZbg43e-65" value="" style="endArrow=classic;html=1;rounded=0;exitX=0;exitY=0.5;exitDx=0;exitDy=0;entryX=1;entryY=0.5;entryDx=0;entryDy=0;" edge="1" parent="1" source="vF9UbIoTn64OwEZbg43e-43" target="vF9UbIoTn64OwEZbg43e-54">
          <mxGeometry width="50" height="50" relative="1" as="geometry">
            <mxPoint x="160" y="530" as="sourcePoint" />
            <mxPoint x="210" y="480" as="targetPoint" />
          </mxGeometry>
        </mxCell>
        <mxCell id="vF9UbIoTn64OwEZbg43e-66" value="" style="endArrow=none;html=1;rounded=0;exitX=0;exitY=0.5;exitDx=0;exitDy=0;entryX=0;entryY=0.5;entryDx=0;entryDy=0;" edge="1" parent="1" source="vF9UbIoTn64OwEZbg43e-49" target="vF9UbIoTn64OwEZbg43e-54">
          <mxGeometry width="50" height="50" relative="1" as="geometry">
            <mxPoint x="440" y="620" as="sourcePoint" />
            <mxPoint x="490" y="570" as="targetPoint" />
            <Array as="points">
              <mxPoint x="420" y="580" />
              <mxPoint x="420" y="680" />
              <mxPoint x="420" y="780" />
            </Array>
          </mxGeometry>
        </mxCell>
        <mxCell id="vF9UbIoTn64OwEZbg43e-67" value="" style="endArrow=none;html=1;rounded=0;exitX=0;exitY=0.5;exitDx=0;exitDy=0;" edge="1" parent="1" source="vF9UbIoTn64OwEZbg43e-50">
          <mxGeometry width="50" height="50" relative="1" as="geometry">
            <mxPoint x="160" y="530" as="sourcePoint" />
            <mxPoint x="420" y="630" as="targetPoint" />
          </mxGeometry>
        </mxCell>
        <mxCell id="vF9UbIoTn64OwEZbg43e-68" value="" style="endArrow=none;html=1;rounded=0;exitX=0;exitY=0.5;exitDx=0;exitDy=0;" edge="1" parent="1" source="vF9UbIoTn64OwEZbg43e-51">
          <mxGeometry width="50" height="50" relative="1" as="geometry">
            <mxPoint x="460" y="640" as="sourcePoint" />
            <mxPoint x="420" y="680" as="targetPoint" />
          </mxGeometry>
        </mxCell>
        <mxCell id="vF9UbIoTn64OwEZbg43e-69" value="" style="endArrow=none;html=1;rounded=0;exitX=0;exitY=0.5;exitDx=0;exitDy=0;" edge="1" parent="1" source="vF9UbIoTn64OwEZbg43e-53">
          <mxGeometry width="50" height="50" relative="1" as="geometry">
            <mxPoint x="460" y="690" as="sourcePoint" />
            <mxPoint x="420" y="730" as="targetPoint" />
          </mxGeometry>
        </mxCell>
        <mxCell id="vF9UbIoTn64OwEZbg43e-70" value="" style="endArrow=none;html=1;rounded=0;exitX=0.5;exitY=1;exitDx=0;exitDy=0;entryX=0.5;entryY=1;entryDx=0;entryDy=0;" edge="1" parent="1" source="vF9UbIoTn64OwEZbg43e-32" target="vF9UbIoTn64OwEZbg43e-36">
          <mxGeometry width="50" height="50" relative="1" as="geometry">
            <mxPoint x="160" y="530" as="sourcePoint" />
            <mxPoint x="210" y="480" as="targetPoint" />
            <Array as="points">
              <mxPoint x="98" y="520" />
              <mxPoint x="250" y="520" />
              <mxPoint x="340" y="520" />
              <mxPoint x="398" y="520" />
            </Array>
          </mxGeometry>
        </mxCell>
        <mxCell id="vF9UbIoTn64OwEZbg43e-71" value="" style="endArrow=none;html=1;rounded=0;entryX=0.5;entryY=1;entryDx=0;entryDy=0;" edge="1" parent="1" target="vF9UbIoTn64OwEZbg43e-33">
          <mxGeometry width="50" height="50" relative="1" as="geometry">
            <mxPoint x="173" y="520" as="sourcePoint" />
            <mxPoint x="160" y="410" as="targetPoint" />
          </mxGeometry>
        </mxCell>
        <mxCell id="vF9UbIoTn64OwEZbg43e-72" value="" style="endArrow=none;html=1;rounded=0;entryX=0.5;entryY=1;entryDx=0;entryDy=0;" edge="1" parent="1" target="vF9UbIoTn64OwEZbg43e-34">
          <mxGeometry width="50" height="50" relative="1" as="geometry">
            <mxPoint x="248" y="520" as="sourcePoint" />
            <mxPoint x="190" y="460" as="targetPoint" />
          </mxGeometry>
        </mxCell>
        <mxCell id="vF9UbIoTn64OwEZbg43e-73" value="" style="endArrow=none;html=1;rounded=0;entryX=0.5;entryY=1;entryDx=0;entryDy=0;" edge="1" parent="1" target="vF9UbIoTn64OwEZbg43e-35">
          <mxGeometry width="50" height="50" relative="1" as="geometry">
            <mxPoint x="323" y="520" as="sourcePoint" />
            <mxPoint x="320" y="460" as="targetPoint" />
          </mxGeometry>
        </mxCell>
        <mxCell id="vF9UbIoTn64OwEZbg43e-76" value="" style="endArrow=classic;html=1;rounded=0;" edge="1" parent="1">
          <mxGeometry relative="1" as="geometry">
            <mxPoint x="420" y="680" as="sourcePoint" />
            <mxPoint x="250" y="520" as="targetPoint" />
            <Array as="points">
              <mxPoint x="250" y="680" />
            </Array>
          </mxGeometry>
        </mxCell>
        <mxCell id="vF9UbIoTn64OwEZbg43e-77" value="extend" style="edgeLabel;resizable=0;html=1;;align=center;verticalAlign=middle;" connectable="0" vertex="1" parent="vF9UbIoTn64OwEZbg43e-76">
          <mxGeometry relative="1" as="geometry" />
        </mxCell>
      </root>
    </mxGraphModel>
  </diagram>
</mxfile>
